<svg width="16" height="17" viewBox="0 0 16 17" fill="none" xmlns="http://www.w3.org/2000/svg">
<path d="M13.1002 10.2181C12.5386 9.63679 11.8332 9.63679 11.278 10.2181C10.8535 10.6627 10.4224 11.1073 10.0045 11.5518C9.88689 11.6749 9.79545 11.7023 9.65177 11.6202C9.37746 11.4629 9.08355 11.333 8.81577 11.162C7.58138 10.3481 6.54291 9.30165 5.62201 8.11843C5.16483 7.53024 4.75989 6.90785 4.47905 6.19654C4.42027 6.05292 4.43333 5.95716 4.54436 5.84089C4.96889 5.41001 5.38689 4.96544 5.80489 4.52088C6.38616 3.90533 6.38616 3.18718 5.80489 2.56479C5.4718 2.20914 5.1387 1.86717 4.80561 1.51152C4.45946 1.14903 4.11984 0.786537 3.77368 0.430885C3.212 -0.143628 2.50663 -0.143628 1.95148 0.430885C1.52042 0.87545 1.10895 1.32685 0.67136 1.76458C0.259894 2.18179 0.0508957 2.67423 0.0117084 3.24874C-0.0536036 4.18574 0.161926 5.06803 0.468893 5.92297C1.10242 7.70122 2.06251 9.28114 3.22506 10.7311C4.79908 12.694 6.68007 14.2397 8.87455 15.3614C9.8673 15.8675 10.8862 16.2505 12.003 16.3121C12.7672 16.36 13.4399 16.1548 13.9689 15.5256C14.3346 15.0947 14.7461 14.7048 15.1314 14.3013C15.7062 13.6926 15.7062 12.9539 15.138 12.3589C14.4587 11.6407 13.773 10.9294 13.0872 10.2181H13.1002Z" fill="#FDA31B"/>
</svg>
