<svg width="1920" height="1038" viewBox="0 0 1920 1038" fill="none" xmlns="http://www.w3.org/2000/svg">
<path d="M1920 12.4547C1892.3 5.72811 1790.87 -3.69497 1606.67 12.4547C1528.69 19.2973 1474.24 31.2139 1421.36 42.8116C1318.13 65.4269 1220.86 86.7376 966.01 66.3258C795.95 52.6985 672.28 37.1432 571.94 24.5308C444.89 8.54054 355.27 -2.73816 256.27 0.581661C114.52 5.33669 26.36 24.7337 0 33.8379V931.075C82.42 957.198 293.11 1013.49 476.5 1029.64C676.44 1047.25 744.64 1033.24 797.99 1022.28C805.81 1020.67 813.31 1019.13 820.86 1017.77C831.24 1015.9 841.49 1013.72 851.97 1011.5C901.15 1001.1 955.38 989.614 1051.09 1002.33C1054 1002.72 1056.93 1003.11 1059.88 1003.5C1174.93 1018.85 1326.36 1039.05 1559.62 989.266C1751.02 948.413 1879.62 948.5 1920 953.646V12.4547Z" fill="#EDF6F0"/>
</svg>
