<svg width="1920" height="700" viewBox="0 0 1920 700" fill="none" xmlns="http://www.w3.org/2000/svg">
<path d="M347.5 44.2044C225.9 67.2129 65.17 72.3006 0 71.9733V643.715C6.67 645.034 27.4 646.889 77 655.616C139 666.526 227 675.947 251 674.955C270.2 674.162 286 678.595 291.5 680.906C293.33 671.157 303.5 649.864 329.5 642.724C355.5 635.583 367.67 650.33 370.5 658.592C370.83 658.264 373 656.41 379 651.649C386.5 645.699 403.5 642.228 422.5 648.178C437.7 652.939 440.5 666.357 440 672.476C440.33 672.476 441.7 672.179 444.5 670.988C448 669.501 464 663.55 482.5 672.476C497.3 679.617 502.33 691.647 503 696.774C504.67 697.101 525.4 696.278 595 698.261C682 700.741 712 697.27 867 683.385C1022 669.501 1036.5 682.889 1187 689.832C1337.5 696.774 1451.5 683.385 1634.5 666.03C1780.9 652.145 1885.83 652.314 1920 654.129V88.833C1915.5 87.6726 1897.8 83.2792 1863 74.9485C1828.2 66.6178 1751.83 51.6425 1718 45.1961C1716.67 44.2044 1710.4 42.4192 1696 43.2126C1681.6 44.006 1670.67 38.9184 1667 36.2704C1666.33 39.077 1662 46.3862 1650 53.1301C1638 59.874 1622.33 51.9697 1616 47.1796C1613.5 53.7946 1604.2 67.6096 1587 69.9898C1569.8 72.37 1557.5 59.0806 1553.5 52.1383C1552.83 53.9532 1548.8 60.0723 1538 69.9898C1524.5 82.3866 1502.5 76.4361 1485.5 69.9898C1468.5 63.5434 1465 49.659 1463 51.1466C1461 52.6342 1444 63.5434 1418 56.1053C1397.2 50.1548 1392.67 36.7663 1393 30.8158C1389 30.6472 1379 29.229 1371 24.8653C1363 20.5016 1359 8.17419 1358 2.55099C1325.67 -1.416 1226 -3.69702 1086 18.9148C911 47.1796 888 28.8323 732 18.9148C576 8.99734 499.5 15.4437 347.5 44.2044Z" fill="#055AA3"/>
<path fill-rule="evenodd" clip-rule="evenodd" d="M247.118 676.022C223.883 619.639 223.499 554.478 313.574 534.172C348.198 526.366 378.326 522.596 404.283 519.347L404.284 519.347C498.277 507.584 537.574 502.666 537.574 337.791C537.574 148.804 652.132 153.813 687.052 155.339C691.01 155.513 693.945 155.641 695.574 155.437C709.676 153.671 865.054 127.068 821.145 27.1886C824.727 27.543 828.238 27.8932 831.686 28.2371C910.223 36.07 956.483 40.6838 1086 19.7604C1226 -2.85655 1325.67 -0.575012 1358 3.39288C1359 9.01736 1363 21.3476 1371 25.7122C1379 30.0769 1389 31.4954 1393 31.6641C1392.67 37.6159 1397.2 51.0075 1418 56.9594C1444 64.3991 1461 53.4875 1463 51.9995C1463.66 51.5085 1464.48 52.6917 1465.9 54.7294C1468.78 58.8668 1474.11 66.5268 1485.5 70.847C1502.5 77.2948 1524.5 83.2466 1538 70.847C1548.8 60.9272 1552.83 54.8068 1553.5 52.9915C1557.5 59.9353 1569.8 73.2277 1587 70.847C1604.2 68.4662 1613.5 54.6481 1616 48.0316C1622.33 52.8228 1638 60.7289 1650 53.9834C1662 47.238 1666.33 39.9272 1667 37.1199C1670.67 39.7685 1681.6 44.8573 1696 44.0637C1710.4 43.2701 1716.67 45.0557 1718 46.0477C1751.83 52.4955 1828.2 67.4743 1863 75.8068C1897.8 84.1394 1915.5 88.5338 1920 89.6944V655.118C1885.83 653.303 1780.9 653.134 1634.5 667.022C1616.02 668.775 1598.24 670.488 1581.06 672.143C1428.1 686.879 1322.3 697.072 1187 690.829C1139.9 688.656 1106.12 685.852 1077.19 683.449C1013.66 678.175 973.492 674.84 867 684.382C856.189 685.35 845.987 686.268 836.331 687.137C707.538 698.724 675.932 701.568 595 699.261C545.404 697.847 520.623 697.859 509.871 697.864C505.534 697.866 503.48 697.867 503 697.773C502.33 692.645 497.3 680.612 482.5 673.47C464 664.542 448 670.494 444.5 671.982C441.7 673.172 440.33 673.47 440 673.47C440.5 667.349 437.7 653.928 422.5 649.167C403.5 643.215 386.5 646.687 379 652.638C373 657.4 370.83 659.255 370.5 659.582C367.67 651.319 355.5 636.569 329.5 643.711C303.5 650.853 293.33 672.151 291.5 681.902C286 679.59 270.2 675.156 251 675.95C249.85 675.997 248.553 676.021 247.118 676.022Z" fill="#065FB1"/>
</svg>
