<svg width="36" height="36" viewBox="0 0 36 36" fill="none" xmlns="http://www.w3.org/2000/svg">
<g clip-path="url(#clip0_4048_365)">
<path d="M36.0001 18.4008C36.0001 16.922 35.8781 15.8414 35.6126 14.7209H18.3672V21.401H28.4896C28.2864 23.0604 27.1836 25.5615 24.7343 27.2394L24.6991 27.4625L30.1504 31.6017L30.527 31.6388C33.9951 28.4979 35.9974 23.8782 35.9974 18.4008" fill="#4285F4"/>
<path d="M18.3672 35.9984C23.3255 35.9984 27.4898 34.3974 30.5298 31.6388L24.7344 27.2394C23.1846 28.2988 21.101 29.0395 18.3672 29.0395C13.5092 29.0395 9.38822 25.8986 7.91701 21.5603L7.70026 21.5789L2.02945 25.8774L1.9563 26.0792C4.9773 31.9601 11.1819 35.9984 18.3645 35.9984" fill="#34A853"/>
<path d="M7.91962 21.5603C7.53218 20.4399 7.30729 19.2398 7.30729 17.9999C7.30729 16.76 7.53218 15.5599 7.89795 14.4395L7.88711 14.2005L2.14586 9.83301L1.95891 9.92062C0.715286 12.3606 0 15.1006 0 17.9999C0 20.8992 0.715286 23.6392 1.95891 26.0792L7.91691 21.5603" fill="#FBBC05"/>
<path d="M18.3672 6.96055C21.8163 6.96055 24.1437 8.42082 25.4686 9.63948L30.6517 4.67988C27.4708 1.78058 23.3281 0.00170898 18.3672 0.00170898C11.1845 0.00170898 4.97998 4.04267 1.95898 9.92092L7.89802 14.4398C9.3882 10.0988 13.5092 6.96055 18.3672 6.96055Z" fill="#EB4335"/>
</g>
<defs>
<clipPath id="clip0_4048_365">
<rect width="36" height="36" fill="white"/>
</clipPath>
</defs>
</svg>
