<svg width="67" height="91" viewBox="0 0 67 91" fill="none" xmlns="http://www.w3.org/2000/svg">
<path d="M41.1437 35.7517C38.4979 38.4081 34.1529 38.4081 31.5071 35.7517C28.8612 33.0953 28.8612 28.733 31.5071 26.0766C31.677 25.906 31.8226 25.8085 31.9925 25.6379C30.1477 25.8573 28.3758 26.6615 26.9679 28.075C23.6181 31.4381 23.6181 36.9459 26.9679 40.309C30.3176 43.6721 35.8035 43.6721 39.1532 40.309C40.5611 38.8955 41.3621 37.0921 41.5806 35.2643C41.4835 35.4349 41.3136 35.5811 41.1437 35.7517Z" fill="#0076B4"/>
<path d="M35.4396 30.0978L33.9832 32.0962H36.4833L37.8912 34.119L38.6437 31.7307L41.0225 31.0239L38.9592 29.5373L39.0321 27.0515L37.0174 28.5137L34.6871 27.7583L35.4396 30.0978Z" fill="#0076B4"/>
<path d="M33.0122 0.0245361C16.0692 20.9345 -2.30593 20.0084 0.242798 42.015C0.339893 42.8436 0.509808 43.7453 0.703997 44.647C2.79153 54.6389 3.78675 64.8258 3.78675 75.0858V84.0785C3.78675 87.9047 6.8695 90.9754 10.6562 90.9754H55.3682C59.1792 90.9754 62.2376 87.8803 62.2376 84.0785V75.0858C62.2376 64.8989 63.2329 54.6389 65.3204 44.647C65.4903 43.7453 65.6845 42.8192 65.7816 42.015C68.3061 20.0327 49.9309 20.9345 33.0122 0.0245361ZM58.4267 41.0889C58.3296 41.625 58.2568 42.2587 58.0626 42.9898C55.9022 53.1767 54.8827 63.8997 54.8827 74.9883V83.4449H11.1902V74.9883C11.1902 63.8997 10.0979 53.1767 8.01036 42.9898C7.84044 42.2587 7.74335 41.5276 7.64625 41.0889C6.55394 31.7306 9.9037 29.2692 18.9578 22.6404C23.1328 19.6428 28.0118 16.0116 33.085 11.0156C38.1582 16.0116 43.0372 19.5453 47.2123 22.6404C56.0721 29.2692 59.519 31.7306 58.4267 41.0889Z" fill="#0076B4"/>
<path d="M15.8506 52.6892L32.5266 55.5649C32.6965 55.5893 32.8664 55.6137 33.012 55.6137V71.6982L15.8506 68.2864V52.6892Z" fill="#0076B4"/>
<path d="M21.4337 70.9429L33.0122 73.2824L21.4094 76.1582L21.4337 70.9429Z" fill="#0076B4"/>
<path d="M32.9878 55.5895C33.1577 55.5895 33.3276 55.5895 33.4733 55.5408L50.1492 52.665V68.2622L32.9878 71.6741V55.5895Z" fill="#0076B4"/>
<path d="M33.0122 73.2824L44.5907 70.9429V76.1582L33.0122 73.2824Z" fill="#0076B4"/>
</svg>
