<svg width="68" height="68" viewBox="0 0 68 68" fill="none" xmlns="http://www.w3.org/2000/svg">
<path d="M65.0893 36.1613C66.4218 36.1613 67.5001 35.0819 67.5001 33.7506V12.0542C67.5001 10.9959 66.8103 10.0613 65.798 9.75057L34.4586 0.107705C33.9972 -0.0359018 33.5028 -0.0359018 33.0414 0.107705L1.7021 9.75057C0.689785 10.0613 0 10.9959 0 12.0542C0 13.1124 0.689785 14.047 1.7021 14.3578L14.0692 18.1631L12.1266 25.9334C11.8276 27.1223 12.4703 28.3453 13.6168 28.7762L24.1881 32.7404C10.2242 36.8757 0 49.8025 0 65.0899C0 66.4212 1.07823 67.5006 2.41072 67.5006H65.0893C66.4218 67.5006 67.5001 66.4212 67.5001 65.0899C67.5001 49.8025 57.2758 36.8757 43.312 32.7404L53.8833 28.7762C55.0298 28.3453 55.6725 27.1223 55.3735 25.9334L53.4308 18.1631L62.6786 15.3176V33.7506C62.6786 35.0819 63.7569 36.1613 65.0893 36.1613ZM33.75 4.93385L49.0568 9.64345H33.75C32.4175 9.64345 31.3393 10.7229 31.3393 12.0542C31.3393 13.3855 32.4175 14.4649 33.75 14.4649H49.0568L33.75 19.1745L10.6081 12.0542L33.75 4.93385ZM42.087 51.0731C39.3372 50.7838 36.5311 50.6256 33.75 50.6256C30.9691 50.6256 28.1629 50.7838 25.413 51.0731C27.3117 41.6171 30.9203 36.1613 33.75 36.1613C36.5798 36.1613 40.1884 41.6171 42.087 51.0731ZM43.3458 62.6792H24.1542C24.223 60.3095 24.3823 58.0632 24.6313 55.9712C27.4241 55.6388 30.4683 55.4471 33.75 55.4471C37.0318 55.4471 40.076 55.6388 42.8688 55.9712C43.1177 58.0632 43.2771 60.3095 43.3458 62.6792ZM47.7669 56.7528C54.6744 58.1397 59.452 60.4351 61.5178 62.6792H48.168C48.1081 60.693 47.9727 58.7101 47.7669 56.7528ZM19.3321 62.6792H5.98221C8.04803 60.4351 12.8256 58.1397 19.7332 56.7528C19.5273 58.7101 19.392 60.693 19.3321 62.6792ZM25.1979 37.4681C23.0041 41.1534 21.4086 46.2018 20.4308 51.7708C14.8685 52.7477 9.82502 54.3401 6.14097 56.5299C8.96161 47.4555 16.1214 40.2849 25.1979 37.4681ZM61.3591 56.5299C57.675 54.3401 52.6316 52.7477 47.0693 51.7708C46.0914 46.2018 44.496 41.1534 42.3022 37.4681C51.3787 40.2849 58.5384 47.4555 61.3591 56.5299ZM50.1754 25.0165L33.75 31.1763L17.3247 25.0165L18.6825 19.5825L33.0414 24.0006C33.2721 24.0724 33.5099 24.1077 33.75 24.1077C33.9902 24.1077 34.2279 24.0724 34.4586 24.0006L48.8176 19.5825L50.1754 25.0165Z" fill="white"/>
</svg>
