<svg width="48" height="48" viewBox="0 0 48 48" fill="none" xmlns="http://www.w3.org/2000/svg">
<path d="M31.2121 10.7965V15.0958L23.1698 23.1368C22.6961 23.5985 22.6841 24.36 23.1459 24.8337C23.6076 25.3074 24.3693 25.3194 24.8431 24.8577C24.8491 24.8517 24.8551 24.8457 24.867 24.8337L32.9093 16.7927H37.2093C37.5271 16.7927 37.833 16.6668 38.0549 16.4389L45.2515 9.24342C45.7193 8.77571 45.7193 8.01419 45.2515 7.54648C45.0236 7.32462 44.7238 7.1927 44.4059 7.1927H40.8076V3.59494C40.8076 2.93535 40.2678 2.39569 39.6081 2.39569C39.2903 2.39569 38.9844 2.52161 38.7625 2.74947L31.5659 9.94498C31.338 10.1668 31.2121 10.4727 31.2121 10.7905V10.7965Z" fill="#FDA31B"/>
<path d="M45.1798 12.709L41.5875 16.3008C45.8455 26.0147 41.4196 37.3417 31.7041 41.599C21.9887 45.8564 10.66 41.4311 6.40197 31.7172C2.14396 22.0032 6.56989 10.6763 16.2853 6.41896C21.197 4.2663 26.7864 4.2663 31.7041 6.41896L35.2964 2.8272C23.6019 -3.40891 9.06472 1.01633 2.82764 12.709C-3.40944 24.4018 1.01649 38.9367 12.711 45.1728C24.4055 51.4089 38.9427 46.9837 45.1798 35.291C48.9401 28.2334 48.9401 19.7726 45.1798 12.715V12.709Z" fill="#FDA31B"/>
<path d="M28.8134 10.7964C28.8134 9.84894 29.1852 8.93751 29.8569 8.26593C21.143 5.00996 11.4335 9.4352 8.17704 18.1478C4.92057 26.8603 9.3465 36.5683 18.0604 39.8242C26.7743 43.0802 36.4838 38.655 39.7403 29.9424C41.1616 26.1408 41.1616 21.9554 39.7403 18.1478C39.0686 18.8193 38.157 19.1971 37.2095 19.1911H34.9965C37.6652 25.2713 34.8945 32.3649 28.8134 35.0332C22.7322 37.7016 15.6376 34.9313 12.9688 28.8511C10.3001 22.7709 13.0708 15.6773 19.1519 13.009C22.2285 11.6598 25.7368 11.6598 28.8134 13.009V10.7964Z" fill="#FDA31B"/>
<path d="M27.7643 15.1557C22.8886 13.087 17.2572 15.3656 15.1882 20.2405C13.1192 25.1155 15.3981 30.746 20.2738 32.8147C25.1496 34.8834 30.7809 32.6048 32.8499 27.7298C33.8635 25.3373 33.8635 22.639 32.8499 20.2465L26.5589 26.5366C25.1555 27.9457 22.8826 27.9517 21.4733 26.5486C20.0639 25.1455 20.0579 22.8729 21.4613 21.4638L21.4733 21.4518L27.7643 15.1617V15.1557Z" fill="#FDA31B"/>
</svg>
