<svg width="64" height="70" viewBox="0 0 64 70" fill="none" xmlns="http://www.w3.org/2000/svg">
<path d="M63.7797 54.0909C63.7797 54.5682 63.6202 55.0455 63.3013 55.2045L47.3564 69.5227C47.0375 69.8409 46.5592 70 46.2403 70H17.5394C14.8288 70 12.7559 67.9318 12.7559 65.2273V44.5455C12.7559 43.5909 13.3937 42.9545 14.3504 42.9545C15.3071 42.9545 15.9449 43.5909 15.9449 44.5455V65.2273C15.9449 66.1818 16.5827 66.8182 17.5394 66.8182H44.6458V54.0909C44.6458 53.1364 45.2836 52.5 46.2403 52.5H60.5907V4.77273C60.5907 3.81818 59.9529 3.18182 58.9962 3.18182H17.5394C16.5827 3.18182 15.9449 3.81818 15.9449 4.77273V11.1364H27.1064C29.817 11.1364 31.8898 13.2045 31.8898 15.9091V35C31.8898 37.7045 29.817 39.7727 27.1064 39.7727H25.5119V36.5909C25.5119 32.9318 23.439 29.9091 20.5689 28.1591C21.6851 27.0455 22.3229 25.6136 22.3229 23.8636C22.3229 20.3636 19.4528 17.5 15.9449 17.5C12.437 17.5 9.56695 20.3636 9.56695 23.8636C9.56695 25.6136 10.2048 27.0455 11.3209 28.1591C8.29136 29.75 6.37797 32.9318 6.37797 36.5909V39.7727H4.78348C2.07284 39.7727 0 37.7045 0 35V15.9091C0 13.2045 2.07284 11.1364 4.78348 11.1364H12.7559V4.77273C12.7559 2.06818 14.8288 0 17.5394 0H58.9962C61.7068 0 63.7797 2.06818 63.7797 4.77273V54.0909ZM19.1339 23.8636C19.1339 22.1136 17.6989 20.6818 15.9449 20.6818C14.191 20.6818 12.7559 22.1136 12.7559 23.8636C12.7559 25.6136 14.191 27.0455 15.9449 27.0455C17.6989 27.0455 19.1339 25.6136 19.1339 23.8636ZM9.56695 36.5909V39.7727H22.3229V36.5909C22.3229 33.0909 19.4528 30.2273 15.9449 30.2273C12.437 30.2273 9.56695 33.0909 9.56695 36.5909ZM38.2678 33.4091H54.2127C55.1694 33.4091 55.8072 32.7727 55.8072 31.8182C55.8072 30.8636 55.1694 30.2273 54.2127 30.2273H38.2678C37.3111 30.2273 36.6733 30.8636 36.6733 31.8182C36.6733 32.7727 37.3111 33.4091 38.2678 33.4091ZM38.2678 39.7727H54.2127C55.1694 39.7727 55.8072 39.1364 55.8072 38.1818C55.8072 37.2273 55.1694 36.5909 54.2127 36.5909H38.2678C37.3111 36.5909 36.6733 37.2273 36.6733 38.1818C36.6733 39.1364 37.3111 39.7727 38.2678 39.7727ZM36.6733 49.3182H22.3229C21.3662 49.3182 20.7284 49.9545 20.7284 50.9091C20.7284 51.8636 21.3662 52.5 22.3229 52.5H36.6733C37.63 52.5 38.2678 51.8636 38.2678 50.9091C38.2678 49.9545 37.63 49.3182 36.6733 49.3182ZM36.6733 55.6818H22.3229C21.3662 55.6818 20.7284 56.3182 20.7284 57.2727C20.7284 58.2273 21.3662 58.8636 22.3229 58.8636H36.6733C37.63 58.8636 38.2678 58.2273 38.2678 57.2727C38.2678 56.3182 37.63 55.6818 36.6733 55.6818ZM20.7284 44.5455C20.7284 45.5 21.3662 46.1364 22.3229 46.1364H54.2127C55.1694 46.1364 55.8072 45.5 55.8072 44.5455C55.8072 43.5909 55.1694 42.9545 54.2127 42.9545H22.3229C21.3662 42.9545 20.7284 43.5909 20.7284 44.5455ZM38.2678 27.0455H54.2127C55.1694 27.0455 55.8072 26.4091 55.8072 25.4545V12.7273C55.8072 11.7727 55.1694 11.1364 54.2127 11.1364H38.2678C37.3111 11.1364 36.6733 11.7727 36.6733 12.7273V25.4545C36.6733 26.4091 37.3111 27.0455 38.2678 27.0455Z" fill="white"/>
</svg>
