<svg width="55" height="45" viewBox="0 0 55 45" fill="none" xmlns="http://www.w3.org/2000/svg">
<path d="M25.2769 19.1467C24.3688 18.0736 23.2451 17.2886 21.9732 16.734C22.4476 15.8477 22.8282 15.0239 23.1041 14.2677C23.7965 12.5284 24.3 10.81 24.3 9.3002C24.3 7.85754 23.844 6.2594 22.4709 5.13422C21.35 4.09717 19.9543 3.7002 18.6 3.7002C16.6525 3.7002 14.8991 4.54315 13.3996 5.70002C11.8011 6.86655 10.3456 8.588 8.99062 10.6561L8.98593 10.6633L8.98129 10.6704C7.3816 13.1427 6.0801 15.8214 5.07236 18.6979C4.04586 21.5608 3.5 24.368 3.5 27.1002C3.5 31.4317 4.38883 35.2458 6.72777 37.959L6.74682 37.9811L6.76629 38.0028C9.10175 40.6078 12.165 41.9002 15.7 41.9002C18.5099 41.9002 21.1299 41.2782 23.1741 39.6428L23.1809 39.6374L23.1876 39.6319C25.0135 38.1538 26.3196 36.2847 27.0403 34.0673C27.1252 33.8294 27.2052 33.5913 27.2803 33.3529C27.8227 34.9654 28.6681 36.4109 29.8787 37.6215L29.9211 37.6639L29.9652 37.7046C32.34 39.8968 35.3405 40.9002 38.7 40.9002C41.4602 40.9002 44.0386 40.3332 46.071 38.8219C47.8876 37.5172 49.2461 35.8288 50.0065 33.7607C50.718 31.9321 51.1 30.0729 51.1 28.2002C51.1 24.9264 50.2779 21.937 48.1701 19.7288C47.4101 18.9326 46.5088 18.3185 45.5037 17.8539C46.0515 16.996 46.4959 16.1952 46.825 15.4558C47.6553 13.7188 48.3 11.9256 48.3 10.3002C48.3 8.85755 47.844 7.25939 46.4709 6.13421C45.35 5.09717 43.9543 4.7002 42.6 4.7002C40.5723 4.7002 38.7806 5.64623 37.2862 6.88993C35.8955 8.03658 34.4992 9.61134 33.0907 11.5127C31.2252 14.0242 29.6764 16.6878 28.4499 19.5014C27.9819 20.5752 27.593 21.6458 27.2889 22.7118C26.838 21.3898 26.1815 20.1868 25.2769 19.1467Z" fill="#FDA31B" stroke="#E7F8FE" stroke-width="6"/>
</svg>
