<svg width="143" height="72" viewBox="0 0 143 72" fill="none" xmlns="http://www.w3.org/2000/svg">
<g clip-path="url(#clip0_4051_562)">
<path d="M75.2564 18.2651C76.1132 22.8683 79.6902 26.5051 84.2636 27.4516C84.2636 27.4516 84.3533 27.4815 84.5227 27.5314C83.1576 23.0477 79.6604 19.6102 75.2564 18.2651ZM75.2564 18.2651C76.1132 22.8683 79.6902 26.5051 84.2636 27.4516C84.2636 27.4516 84.3533 27.4815 84.5227 27.5314C83.1576 23.0477 79.6604 19.6102 75.2564 18.2651ZM75.2564 18.2651C76.1132 22.8683 79.6902 26.5051 84.2636 27.4516C84.2636 27.4516 84.3533 27.4815 84.5227 27.5314C83.1576 23.0477 79.6604 19.6102 75.2564 18.2651ZM75.2564 18.2651C76.1132 22.8683 79.6902 26.5051 84.2636 27.4516C84.2636 27.4516 84.3533 27.4815 84.5227 27.5314C83.1576 23.0477 79.6604 19.6102 75.2564 18.2651ZM75.2564 18.2651C76.1132 22.8683 79.6902 26.5051 84.2636 27.4516C84.2636 27.4516 84.3533 27.4815 84.5227 27.5314C83.1576 23.0477 79.6604 19.6102 75.2564 18.2651ZM75.2564 18.2651C76.1132 22.8683 79.6902 26.5051 84.2636 27.4516C84.2636 27.4516 84.3533 27.4815 84.5227 27.5314C83.1576 23.0477 79.6604 19.6102 75.2564 18.2651ZM75.2564 18.2651C76.1132 22.8683 79.6902 26.5051 84.2636 27.4516C84.2636 27.4516 84.3533 27.4815 84.5227 27.5314C83.1576 23.0477 79.6604 19.6102 75.2564 18.2651ZM75.2564 18.2651C76.1132 22.8683 79.6902 26.5051 84.2636 27.4516C84.2636 27.4516 84.3533 27.4815 84.5227 27.5314C83.1576 23.0477 79.6604 19.6102 75.2564 18.2651ZM75.2564 18.2651C76.1132 22.8683 79.6902 26.5051 84.2636 27.4516C84.2636 27.4516 84.3533 27.4815 84.5227 27.5314C83.1576 23.0477 79.6604 19.6102 75.2564 18.2651ZM75.2564 18.2651C76.1132 22.8683 79.6902 26.5051 84.2636 27.4516C84.2636 27.4516 84.3533 27.4815 84.5227 27.5314C83.1576 23.0477 79.6604 19.6102 75.2564 18.2651ZM75.2564 18.2651C76.1132 22.8683 79.6902 26.5051 84.2636 27.4516C84.2636 27.4516 84.3533 27.4815 84.5227 27.5314C83.1576 23.0477 79.6604 19.6102 75.2564 18.2651ZM75.2564 18.2651C76.1132 22.8683 79.6902 26.5051 84.2636 27.4516C84.2636 27.4516 84.3533 27.4815 84.5227 27.5314C83.1576 23.0477 79.6604 19.6102 75.2564 18.2651ZM75.2564 18.2651C76.1132 22.8683 79.6902 26.5051 84.2636 27.4516C84.2636 27.4516 84.3533 27.4815 84.5227 27.5314C83.1576 23.0477 79.6604 19.6102 75.2564 18.2651ZM75.2564 18.2651C76.1132 22.8683 79.6902 26.5051 84.2636 27.4516C84.2636 27.4516 84.3533 27.4815 84.5227 27.5314C83.1576 23.0477 79.6604 19.6102 75.2564 18.2651ZM75.2564 18.2651C76.1132 22.8683 79.6902 26.5051 84.2636 27.4516C84.2636 27.4516 84.3533 27.4815 84.5227 27.5314C83.1576 23.0477 79.6604 19.6102 75.2564 18.2651ZM57.6803 27.5214C57.8397 27.4815 57.9294 27.4516 57.9294 27.4516C62.4928 26.5051 66.0598 22.8783 66.9267 18.285C62.5725 19.6401 59.0553 23.0776 57.6803 27.5214ZM75.2564 18.2651C76.1132 22.8683 79.6902 26.5051 84.2636 27.4516C84.2636 27.4516 84.3533 27.4815 84.5227 27.5314C83.1576 23.0477 79.6604 19.6102 75.2564 18.2651ZM75.2564 18.2651C76.1132 22.8683 79.6902 26.5051 84.2636 27.4516C84.2636 27.4516 84.3533 27.4815 84.5227 27.5314C83.1576 23.0477 79.6604 19.6102 75.2564 18.2651ZM57.6803 27.5214C57.8397 27.4815 57.9294 27.4516 57.9294 27.4516C62.4928 26.5051 66.0598 22.8783 66.9267 18.285C62.5725 19.6401 59.0553 23.0776 57.6803 27.5214ZM57.6803 27.5214C57.8397 27.4815 57.9294 27.4516 57.9294 27.4516C62.4928 26.5051 66.0598 22.8783 66.9267 18.285C62.5725 19.6401 59.0553 23.0776 57.6803 27.5214ZM75.2564 18.2651C76.1132 22.8683 79.6902 26.5051 84.2636 27.4516C84.2636 27.4516 84.3533 27.4815 84.5227 27.5314C83.1576 23.0477 79.6604 19.6102 75.2564 18.2651ZM75.2564 18.2651C76.1132 22.8683 79.6902 26.5051 84.2636 27.4516C84.2636 27.4516 84.3533 27.4815 84.5227 27.5314C83.1576 23.0477 79.6604 19.6102 75.2564 18.2651ZM57.6803 27.5214C57.8397 27.4815 57.9294 27.4516 57.9294 27.4516C62.4928 26.5051 66.0598 22.8783 66.9267 18.285C62.5725 19.6401 59.0553 23.0776 57.6803 27.5214ZM57.6803 27.5214C57.8397 27.4815 57.9294 27.4516 57.9294 27.4516C62.4928 26.5051 66.0598 22.8783 66.9267 18.285C62.5725 19.6401 59.0553 23.0776 57.6803 27.5214ZM75.2564 18.2651C76.1132 22.8683 79.6902 26.5051 84.2636 27.4516C84.2636 27.4516 84.3533 27.4815 84.5227 27.5314C83.1576 23.0477 79.6604 19.6102 75.2564 18.2651ZM75.2564 18.2651C76.1132 22.8683 79.6902 26.5051 84.2636 27.4516C84.2636 27.4516 84.3533 27.4815 84.5227 27.5314C83.1576 23.0477 79.6604 19.6102 75.2564 18.2651ZM57.6803 27.5214C57.8397 27.4815 57.9294 27.4516 57.9294 27.4516C62.4928 26.5051 66.0598 22.8783 66.9267 18.285C62.5725 19.6401 59.0553 23.0776 57.6803 27.5214ZM57.6803 27.5214C57.8397 27.4815 57.9294 27.4516 57.9294 27.4516C62.4928 26.5051 66.0598 22.8783 66.9267 18.285C62.5725 19.6401 59.0553 23.0776 57.6803 27.5214ZM75.2564 18.2651C76.1132 22.8683 79.6902 26.5051 84.2636 27.4516C84.2636 27.4516 84.3533 27.4815 84.5227 27.5314C83.1576 23.0477 79.6604 19.6102 75.2564 18.2651ZM75.2564 18.2651C76.1132 22.8683 79.6902 26.5051 84.2636 27.4516C84.2636 27.4516 84.3533 27.4815 84.5227 27.5314C83.1576 23.0477 79.6604 19.6102 75.2564 18.2651ZM57.6803 27.5214C57.8397 27.4815 57.9294 27.4516 57.9294 27.4516C62.4928 26.5051 66.0598 22.8783 66.9267 18.285C62.5725 19.6401 59.0553 23.0776 57.6803 27.5214ZM71.1015 0.00146484C54.9402 0.00146484 41.8379 13.1038 41.8379 29.275C41.8379 45.4462 54.9402 58.5286 71.1015 58.5286C87.2627 58.5286 100.365 45.4263 100.365 29.275C100.365 13.1237 87.2627 0.00146484 71.1015 0.00146484ZM53.6649 44.4498C52.8479 43.3737 52.1404 42.2179 51.5326 40.9924C53.4656 40.9027 65.4719 40.8629 70.0354 54.1047C70.0354 54.1047 64.1667 44.8683 53.6649 44.4498ZM56.9828 40.3348L55.9665 36.2995C55.9665 36.2995 69.0589 38.3022 70.4538 53.477C70.4538 53.477 67.6341 42.9453 56.9828 40.3348ZM70.8125 51.9027C70.8125 51.9027 70.2047 41.65 61.327 36.9571V33.0413C61.327 33.0413 71.8488 38.362 70.8125 51.9027ZM80.866 33.0413V36.9571C71.9883 41.65 71.3805 51.9027 71.3805 51.9027C70.3542 38.362 80.866 33.0413 80.866 33.0413ZM86.2265 36.2995L85.2102 40.3348C74.5589 42.9453 71.7292 53.477 71.7292 53.477C73.144 38.3022 86.2265 36.2995 86.2265 36.2995ZM88.5281 44.4498C78.0263 44.8583 72.1676 54.1047 72.1676 54.1047C76.731 40.8529 88.7672 40.9027 90.6703 40.9924C90.0625 42.2179 89.3451 43.3737 88.5281 44.4498ZM75.356 30.4408C73.7917 30.4408 72.5064 29.1554 72.5064 27.5911V17.717C72.048 17.6672 71.5797 17.6473 71.1015 17.6473C70.6232 17.6473 70.145 17.6672 69.6767 17.727V27.5911C69.6767 29.1554 68.3913 30.4408 66.827 30.4408H42.2165C48.8026 29.8928 55.0797 28.2587 57.1821 27.6708C57.2319 27.4915 57.2917 27.3022 57.3515 27.1228L52.808 24.1536L57.7201 26.1564C57.8098 25.9272 57.9094 25.698 58.019 25.4788L50.1875 17.9861L59.9122 22.5096C60.0317 22.3602 60.1613 22.2107 60.2908 22.0712L57.0326 17.7868L60.9982 21.3239C61.1676 21.1645 61.3469 21.0051 61.5163 20.8457L57.3714 11.2904L64.4855 18.8131C64.7247 18.6935 64.9538 18.5839 65.193 18.4843L63.3198 13.5821L66.1395 18.0957C66.4384 17.9861 66.7274 17.8864 67.0263 17.8067C67.3949 16.0531 68.7301 9.41722 69.6767 2.67175V17.2986C70.145 17.2388 70.6232 17.2189 71.1015 17.2189C71.5797 17.2189 72.048 17.2388 72.5064 17.2886V2.67175C73.4629 9.3973 74.7881 16.0033 75.1567 17.7868C75.4656 17.8765 75.7546 17.9761 76.0535 18.0857L78.8732 13.5821L77 18.4643C77.2491 18.564 77.4883 18.6835 77.7174 18.8031L84.8216 11.2904L80.6767 20.8058C80.856 20.9652 81.0354 21.1346 81.2147 21.294L85.1604 17.7868L81.9221 22.0413C82.0517 22.1908 82.1812 22.3402 82.3007 22.4897L91.9855 17.9861L84.1839 25.4689C84.2935 25.6881 84.3931 25.9172 84.4828 26.1464L89.375 24.1536L84.8415 27.1228C84.9013 27.3022 84.9611 27.4815 85.0109 27.6708C87.1232 28.2587 93.3904 29.8928 99.9565 30.4408H75.346H75.356ZM75.2564 18.2651C76.1132 22.8683 79.6902 26.5051 84.2636 27.4516C84.2636 27.4516 84.3533 27.4815 84.5227 27.5314C83.1576 23.0477 79.6604 19.6102 75.2564 18.2651ZM57.6803 27.5214C57.8397 27.4815 57.9294 27.4516 57.9294 27.4516C62.4928 26.5051 66.0598 22.8783 66.9267 18.285C62.5725 19.6401 59.0553 23.0776 57.6803 27.5214ZM57.6803 27.5214C57.8397 27.4815 57.9294 27.4516 57.9294 27.4516C62.4928 26.5051 66.0598 22.8783 66.9267 18.285C62.5725 19.6401 59.0553 23.0776 57.6803 27.5214ZM75.2564 18.2651C76.1132 22.8683 79.6902 26.5051 84.2636 27.4516C84.2636 27.4516 84.3533 27.4815 84.5227 27.5314C83.1576 23.0477 79.6604 19.6102 75.2564 18.2651ZM75.2564 18.2651C76.1132 22.8683 79.6902 26.5051 84.2636 27.4516C84.2636 27.4516 84.3533 27.4815 84.5227 27.5314C83.1576 23.0477 79.6604 19.6102 75.2564 18.2651ZM57.6803 27.5214C57.8397 27.4815 57.9294 27.4516 57.9294 27.4516C62.4928 26.5051 66.0598 22.8783 66.9267 18.285C62.5725 19.6401 59.0553 23.0776 57.6803 27.5214ZM57.6803 27.5214C57.8397 27.4815 57.9294 27.4516 57.9294 27.4516C62.4928 26.5051 66.0598 22.8783 66.9267 18.285C62.5725 19.6401 59.0553 23.0776 57.6803 27.5214ZM75.2564 18.2651C76.1132 22.8683 79.6902 26.5051 84.2636 27.4516C84.2636 27.4516 84.3533 27.4815 84.5227 27.5314C83.1576 23.0477 79.6604 19.6102 75.2564 18.2651ZM75.2564 18.2651C76.1132 22.8683 79.6902 26.5051 84.2636 27.4516C84.2636 27.4516 84.3533 27.4815 84.5227 27.5314C83.1576 23.0477 79.6604 19.6102 75.2564 18.2651ZM57.6803 27.5214C57.8397 27.4815 57.9294 27.4516 57.9294 27.4516C62.4928 26.5051 66.0598 22.8783 66.9267 18.285C62.5725 19.6401 59.0553 23.0776 57.6803 27.5214ZM57.6803 27.5214C57.8397 27.4815 57.9294 27.4516 57.9294 27.4516C62.4928 26.5051 66.0598 22.8783 66.9267 18.285C62.5725 19.6401 59.0553 23.0776 57.6803 27.5214ZM75.2564 18.2651C76.1132 22.8683 79.6902 26.5051 84.2636 27.4516C84.2636 27.4516 84.3533 27.4815 84.5227 27.5314C83.1576 23.0477 79.6604 19.6102 75.2564 18.2651ZM75.2564 18.2651C76.1132 22.8683 79.6902 26.5051 84.2636 27.4516C84.2636 27.4516 84.3533 27.4815 84.5227 27.5314C83.1576 23.0477 79.6604 19.6102 75.2564 18.2651ZM57.6803 27.5214C57.8397 27.4815 57.9294 27.4516 57.9294 27.4516C62.4928 26.5051 66.0598 22.8783 66.9267 18.285C62.5725 19.6401 59.0553 23.0776 57.6803 27.5214ZM75.2564 18.2651C76.1132 22.8683 79.6902 26.5051 84.2636 27.4516C84.2636 27.4516 84.3533 27.4815 84.5227 27.5314C83.1576 23.0477 79.6604 19.6102 75.2564 18.2651ZM75.2564 18.2651C76.1132 22.8683 79.6902 26.5051 84.2636 27.4516C84.2636 27.4516 84.3533 27.4815 84.5227 27.5314C83.1576 23.0477 79.6604 19.6102 75.2564 18.2651ZM75.2564 18.2651C76.1132 22.8683 79.6902 26.5051 84.2636 27.4516C84.2636 27.4516 84.3533 27.4815 84.5227 27.5314C83.1576 23.0477 79.6604 19.6102 75.2564 18.2651ZM75.2564 18.2651C76.1132 22.8683 79.6902 26.5051 84.2636 27.4516C84.2636 27.4516 84.3533 27.4815 84.5227 27.5314C83.1576 23.0477 79.6604 19.6102 75.2564 18.2651ZM75.2564 18.2651C76.1132 22.8683 79.6902 26.5051 84.2636 27.4516C84.2636 27.4516 84.3533 27.4815 84.5227 27.5314C83.1576 23.0477 79.6604 19.6102 75.2564 18.2651ZM75.2564 18.2651C76.1132 22.8683 79.6902 26.5051 84.2636 27.4516C84.2636 27.4516 84.3533 27.4815 84.5227 27.5314C83.1576 23.0477 79.6604 19.6102 75.2564 18.2651ZM75.2564 18.2651C76.1132 22.8683 79.6902 26.5051 84.2636 27.4516C84.2636 27.4516 84.3533 27.4815 84.5227 27.5314C83.1576 23.0477 79.6604 19.6102 75.2564 18.2651ZM75.2564 18.2651C76.1132 22.8683 79.6902 26.5051 84.2636 27.4516C84.2636 27.4516 84.3533 27.4815 84.5227 27.5314C83.1576 23.0477 79.6604 19.6102 75.2564 18.2651ZM75.2564 18.2651C76.1132 22.8683 79.6902 26.5051 84.2636 27.4516C84.2636 27.4516 84.3533 27.4815 84.5227 27.5314C83.1576 23.0477 79.6604 19.6102 75.2564 18.2651ZM75.2564 18.2651C76.1132 22.8683 79.6902 26.5051 84.2636 27.4516C84.2636 27.4516 84.3533 27.4815 84.5227 27.5314C83.1576 23.0477 79.6604 19.6102 75.2564 18.2651ZM75.2564 18.2651C76.1132 22.8683 79.6902 26.5051 84.2636 27.4516C84.2636 27.4516 84.3533 27.4815 84.5227 27.5314C83.1576 23.0477 79.6604 19.6102 75.2564 18.2651ZM75.2564 18.2651C76.1132 22.8683 79.6902 26.5051 84.2636 27.4516C84.2636 27.4516 84.3533 27.4815 84.5227 27.5314C83.1576 23.0477 79.6604 19.6102 75.2564 18.2651ZM75.2564 18.2651C76.1132 22.8683 79.6902 26.5051 84.2636 27.4516C84.2636 27.4516 84.3533 27.4815 84.5227 27.5314C83.1576 23.0477 79.6604 19.6102 75.2564 18.2651ZM75.2564 18.2651C76.1132 22.8683 79.6902 26.5051 84.2636 27.4516C84.2636 27.4516 84.3533 27.4815 84.5227 27.5314C83.1576 23.0477 79.6604 19.6102 75.2564 18.2651ZM75.2564 18.2651C76.1132 22.8683 79.6902 26.5051 84.2636 27.4516C84.2636 27.4516 84.3533 27.4815 84.5227 27.5314C83.1576 23.0477 79.6604 19.6102 75.2564 18.2651ZM75.2564 18.2651C76.1132 22.8683 79.6902 26.5051 84.2636 27.4516C84.2636 27.4516 84.3533 27.4815 84.5227 27.5314C83.1576 23.0477 79.6604 19.6102 75.2564 18.2651ZM75.2564 18.2651C76.1132 22.8683 79.6902 26.5051 84.2636 27.4516C84.2636 27.4516 84.3533 27.4815 84.5227 27.5314C83.1576 23.0477 79.6604 19.6102 75.2564 18.2651Z" fill="white"/>
<path d="M37.0353 31.5763C35.76 29.5138 33.9964 27.8997 31.7446 26.7041C29.4828 25.5184 25.9955 24.3626 21.2826 23.2566C16.5697 22.1407 13.6005 21.0745 12.385 20.0582C11.4185 19.2512 10.9402 18.2847 10.9402 17.1588C10.9402 15.9233 11.4484 14.9369 12.4846 14.1995C14.0688 13.0437 16.2808 12.4658 19.0906 12.4658C21.9004 12.4658 23.8732 13.0039 25.2382 14.08C26.5933 15.1561 27.49 16.9196 27.8986 19.3608L37.5335 19.032C37.3741 14.618 35.7899 11.0908 32.7509 8.45044C29.7219 5.80008 25.1984 4.48486 19.2002 4.48486C15.5236 4.48486 12.385 5.03287 9.79438 6.13885C7.19384 7.25479 5.20109 8.86892 3.81612 10.9912C2.44112 13.1035 1.75362 15.3852 1.75362 17.8164C1.75362 21.6026 3.22826 24.811 6.16757 27.4414C8.25996 29.3146 11.8967 30.8888 17.0879 32.1742C21.1232 33.1805 23.7038 33.868 24.8496 34.2666C26.5036 34.8544 27.6594 35.5519 28.327 36.349C28.9946 37.1461 29.3234 38.1026 29.3234 39.2385C29.3234 41.0021 28.5263 42.5465 26.952 43.8617C25.3678 45.1869 23.0163 45.8445 19.8976 45.8445C16.779 45.8445 14.6069 45.0972 12.8632 43.6225C11.1295 42.1379 9.9837 39.8164 9.4058 36.6579L0 37.5247C0.627717 42.9151 2.57065 47.0102 5.81884 49.83C9.05707 52.6398 13.7101 54.0446 19.7781 54.0446C23.933 54.0446 27.4103 53.4667 30.2002 52.301C32.9801 51.1352 35.1422 49.3417 36.6667 46.9504C38.1911 44.5492 38.9583 41.9686 38.9583 39.2186C38.9583 36.1896 38.3107 33.6388 37.0353 31.5763Z" fill="white"/>
<path d="M133.704 4.48486V37.6044L113.388 4.48486H103.643V54.0347H112.949V21.6325L132.956 54.0347H143V4.48486H133.704Z" fill="white"/>
<path d="M6.61594 67.5058C6.07789 67.0574 5.29076 66.6788 4.2346 66.3699C3.61684 66.1208 3.19836 65.9216 2.9692 65.7621C2.74999 65.6027 2.63043 65.3935 2.63043 65.1245C2.63043 64.8554 2.74003 64.6263 2.95923 64.437C3.1884 64.2476 3.48731 64.158 3.86594 64.158C4.33423 64.158 4.68297 64.2576 4.91213 64.4469C5.15126 64.6362 5.26086 64.9451 5.26086 65.3736H7.30344V65.3437C7.33333 64.4569 7.03441 63.7793 6.39673 63.3011C5.76902 62.8129 4.94202 62.5737 3.90579 62.5737C2.92934 62.5737 2.12228 62.8129 1.49456 63.2712C0.856879 63.7495 0.538038 64.3572 0.538038 65.1145C0.538038 65.8717 0.817024 66.4795 1.35507 66.898C1.90307 67.3065 2.74003 67.6951 3.85597 68.0638C4.41394 68.2531 4.79257 68.4424 5.01177 68.6118C5.22101 68.7812 5.32065 69.0303 5.32065 69.3591C5.32065 69.638 5.22101 69.8672 5.00181 70.0366C4.7826 70.2159 4.46376 70.2957 4.02536 70.2957C3.48731 70.2957 3.08876 70.186 2.8297 69.9668C2.57065 69.7476 2.44112 69.369 2.44112 68.8409H0.398546V68.8808C0.368654 69.917 0.707422 70.6743 1.42481 71.1625C2.13224 71.6408 2.99909 71.8799 4.02536 71.8799C5.05162 71.8799 5.86865 71.6607 6.49637 71.2123C7.11413 70.7639 7.423 70.1362 7.423 69.3391C7.423 68.542 7.15398 67.9542 6.61594 67.5058Z" fill="white"/>
<path d="M10.8804 64.7558C11.1295 64.3772 11.4981 64.1879 11.9664 64.1879C12.5045 64.1879 12.8931 64.3074 13.1322 64.5466C13.3713 64.7957 13.4809 65.1842 13.4809 65.7422H15.5335L15.5534 65.7024C15.5634 64.6861 15.2645 63.9089 14.6268 63.3708C14.009 62.8428 13.1123 62.5737 11.9664 62.5737C10.9003 62.5737 10.0335 62.9125 9.37586 63.6C8.72822 64.2875 8.39941 65.1842 8.39941 66.2802V68.1734C8.39941 69.2793 8.73818 70.1761 9.41572 70.8536C10.0933 71.5411 10.99 71.8799 12.1159 71.8799C13.2418 71.8799 14.0588 71.6208 14.6567 71.0828C15.2545 70.5547 15.5434 69.7676 15.5335 68.7413L15.5135 68.7014H13.471C13.471 69.2694 13.3614 69.6679 13.1521 69.9071C12.9429 70.1462 12.5942 70.2658 12.1159 70.2658C11.5978 70.2658 11.1992 70.0764 10.9202 69.6978C10.6413 69.3192 10.5018 68.811 10.5018 68.1734V66.2703C10.5018 65.6426 10.6313 65.1344 10.8804 64.7558Z" fill="white"/>
<path d="M22.1394 62.7031V66.4993H18.7916V62.7031H16.6892V71.7502H18.7916V68.1135H22.1394V71.7502H24.2318V62.7031H22.1394Z" fill="white"/>
<path d="M32.1332 63.6598C31.4158 62.9324 30.4892 62.5737 29.3533 62.5737C28.2175 62.5737 27.2908 62.9324 26.5734 63.6598C25.866 64.3871 25.5073 65.3038 25.5073 66.4197V68.0438C25.5073 69.1598 25.866 70.0764 26.5834 70.8038C27.2908 71.5212 28.2175 71.8799 29.3733 71.8799C30.5291 71.8799 31.4358 71.5212 32.1432 70.8038C32.8407 70.0764 33.1994 69.1598 33.1994 68.0438V66.4197C33.1994 65.3038 32.8407 64.3871 32.1332 63.6598ZM31.107 68.0438C31.107 68.7014 30.9475 69.2295 30.6486 69.648C30.3497 70.0565 29.9213 70.2658 29.3733 70.2658C28.8253 70.2658 28.3669 70.0565 28.058 69.648C27.7591 69.2295 27.6097 68.7014 27.6097 68.0438V66.3998C27.6097 65.7522 27.7591 65.2241 28.058 64.8056C28.357 64.3971 28.7854 64.1879 29.3533 64.1879C29.9213 64.1879 30.3398 64.3971 30.6486 64.8156C30.9475 65.2241 31.107 65.7522 31.107 66.3998V68.0438Z" fill="white"/>
<path d="M40.9311 63.6598C40.2137 62.9324 39.2971 62.5737 38.1612 62.5737C37.0253 62.5737 36.0887 62.9324 35.3713 63.6598C34.6639 64.3871 34.3152 65.3038 34.3152 66.4197V68.0438C34.3152 69.1598 34.6639 70.0764 35.3813 70.8038C36.0887 71.5212 37.0253 71.8799 38.1712 71.8799C39.317 71.8799 40.2337 71.5212 40.9411 70.8038C41.6485 70.0764 41.9973 69.1598 41.9973 68.0438V66.4197C41.9973 65.3038 41.6386 64.3871 40.9311 63.6598ZM39.9049 68.0438C39.9049 68.7014 39.7554 69.2295 39.4465 69.648C39.1476 70.0565 38.7192 70.2658 38.1712 70.2658C37.6232 70.2658 37.1648 70.0565 36.8659 69.648C36.557 69.2295 36.4076 68.7014 36.4076 68.0438V66.3998C36.4076 65.7522 36.557 65.2241 36.8559 64.8056C37.1549 64.3971 37.5933 64.1879 38.1612 64.1879C38.7291 64.1879 39.1377 64.3971 39.4465 64.8156C39.7554 65.2241 39.9049 65.7522 39.9049 66.3998V68.0438Z" fill="white"/>
<path d="M45.3751 70.1361V62.7031H43.2827V71.7502H49.261V70.1361H45.3751Z" fill="white"/>
<path d="M60.0119 63.6598C59.2945 62.9324 58.3679 62.5737 57.232 62.5737C56.0961 62.5737 55.1695 62.9324 54.4521 63.6598C53.7447 64.3871 53.386 65.3038 53.386 66.4197V68.0438C53.386 69.1598 53.7447 70.0764 54.4621 70.8038C55.1695 71.5212 56.0961 71.8799 57.2519 71.8799C58.4077 71.8799 59.3144 71.5212 60.0219 70.8038C60.7193 70.0764 61.078 69.1598 61.078 68.0438V66.4197C61.078 65.3038 60.7193 64.3871 60.0119 63.6598ZM58.9856 68.0438C58.9856 68.7014 58.8262 69.2295 58.5273 69.648C58.2284 70.0565 57.7999 70.2658 57.2519 70.2658C56.7039 70.2658 56.2456 70.0565 55.9367 69.648C55.6378 69.2295 55.4883 68.7014 55.4883 68.0438V66.3998C55.4883 65.7522 55.6378 65.2241 55.9367 64.8056C56.2356 64.3971 56.6641 64.1879 57.232 64.1879C57.7999 64.1879 58.2184 64.3971 58.5273 64.8156C58.8262 65.2241 58.9856 65.7522 58.9856 66.3998V68.0438Z" fill="white"/>
<path d="M68.4013 64.3173V62.7031H62.3533V71.7502H64.4556V68.1135H67.7736V66.4993H64.4556V64.3173H68.4013Z" fill="white"/>
<path d="M72.0779 62.7031V64.3173H74.4293V71.7502H76.5317V64.3173H78.923V62.7031H72.0779Z" fill="white"/>
<path d="M85.2302 62.7031V66.4993H81.8724V62.7031H79.77V71.7502H81.8724V68.1135H85.2302V71.7502H87.3226V62.7031H85.2302Z" fill="white"/>
<path d="M94.6858 64.3173V62.7031H88.7573V71.7502H94.6858V70.1361H90.8597V67.8843H94.0481V66.2702H90.8597V64.3173H94.6858Z" fill="white"/>
<path d="M104.48 62.7031V68.3825H104.45L101.132 62.7031H99.0298V71.7502H101.132V66.0709H101.172L104.48 71.7502H106.582V62.7031H104.48Z" fill="white"/>
<path d="M112.65 62.7031H111.514H110.398L107.439 71.7502H109.651L110.179 69.9966H112.869L113.398 71.7502H115.609L112.65 62.7031ZM110.658 68.3825L111.504 65.5727H111.534L112.381 68.3825H110.658Z" fill="white"/>
<path d="M115.151 62.7031V64.3173H117.503V71.7502H119.605V64.3173H121.996V62.7031H115.151Z" fill="white"/>
<path d="M122.983 62.7031V71.7502H125.075V62.7031H122.983Z" fill="white"/>
<path d="M133.096 63.6598C132.379 62.9324 131.462 62.5737 130.326 62.5737C129.19 62.5737 128.254 62.9324 127.546 63.6598C126.829 64.3871 126.48 65.3038 126.48 66.4197V68.0438C126.48 69.1598 126.829 70.0764 127.546 70.8038C128.254 71.5212 129.19 71.8799 130.336 71.8799C131.482 71.8799 132.398 71.5212 133.106 70.8038C133.813 70.0764 134.162 69.1598 134.162 68.0438V66.4197C134.162 65.3038 133.803 64.3871 133.096 63.6598ZM132.07 68.0438C132.07 68.7014 131.92 69.2295 131.621 69.648C131.312 70.0565 130.884 70.2658 130.336 70.2658C129.788 70.2658 129.33 70.0565 129.031 69.648C128.722 69.2295 128.572 68.7014 128.572 68.0438V66.3998C128.572 65.7522 128.722 65.2241 129.021 64.8056C129.32 64.3971 129.758 64.1879 130.326 64.1879C130.894 64.1879 131.312 64.3971 131.611 64.8156C131.92 65.2241 132.07 65.7522 132.07 66.3998V68.0438Z" fill="white"/>
<path d="M140.898 62.7031V68.3825H140.858L137.55 62.7031H135.448V71.7502H137.55V66.0709H137.58L140.898 71.7502H142.99V62.7031H140.898Z" fill="white"/>
</g>
<defs>
<clipPath id="clip0_4051_562">
<rect width="143" height="71.8813" fill="white"/>
</clipPath>
</defs>
</svg>
