<svg width="113" height="57" viewBox="0 0 113 57" fill="none" xmlns="http://www.w3.org/2000/svg">
<g clip-path="url(#clip0_4003_810)">
<path d="M79.3094 23.2108C79.3094 36.0249 68.9557 46.4058 56.185 46.4058C43.4142 46.4058 33.0527 36.017 33.0527 23.2108C33.0527 10.4046 43.4142 0 56.185 0C68.9557 0 79.3094 10.3888 79.3094 23.2108Z" fill="#004A8F"/>
<path d="M-0.000183173 29.7521L7.43237 29.0648C7.88116 31.5692 8.79448 33.4178 10.1645 34.587C11.5344 35.7642 13.3847 36.3488 15.7153 36.3488C18.1875 36.3488 20.0457 35.8274 21.2897 34.7845C22.5416 33.7338 23.1636 32.5172 23.1636 31.1109C23.1636 30.2103 22.9037 29.4519 22.3762 28.8199C21.8487 28.1879 20.9354 27.6349 19.6205 27.1687C18.7229 26.8606 16.6837 26.3076 13.4949 25.5097C9.39286 24.4906 6.51905 23.2423 4.86562 21.7571C2.54295 19.6714 1.37767 17.1276 1.37767 14.1255C1.37767 12.1978 1.92094 10.3887 3.01535 8.71385C4.10977 7.03111 5.67659 5.75128 7.73156 4.86645C9.78654 3.98953 12.2588 3.54712 15.1641 3.54712C19.9039 3.54712 23.4785 4.59785 25.872 6.6914C28.2734 8.78496 29.5253 11.5816 29.6513 15.0814L22.0455 15.3421C21.7148 13.3987 21.0141 12.0003 19.9354 11.155C18.8568 10.3018 17.2427 9.87519 15.0775 9.87519C12.9123 9.87519 11.1093 10.3334 9.8574 11.2419C9.04643 11.8265 8.64488 12.6087 8.64488 13.5883C8.64488 14.481 9.02281 15.2473 9.77866 15.8872C10.7392 16.6931 13.0855 17.5384 16.8097 18.4232C20.5338 19.308 23.2895 20.2166 25.0768 21.1567C26.8641 22.1047 28.2577 23.3924 29.2655 25.0278C30.2733 26.6552 30.7772 28.6856 30.7772 31.0872C30.7772 33.2677 30.1709 35.3139 28.9663 37.2099C27.7617 39.1139 26.061 40.528 23.8564 41.4523C21.6519 42.3766 18.904 42.8349 15.6208 42.8349C10.8337 42.8349 7.1568 41.7209 4.59005 39.4852C2.0233 37.2573 0.495845 34.0024 -0.00805664 29.7284L-0.000183173 29.7521Z" fill="#004A8F"/>
<path d="M81.8999 42.8429V3.55518H89.6002L105.654 29.8155V3.55518H113V42.8429H105.064L89.2537 17.1514V42.8429H81.9078H81.8999Z" fill="#004A8F"/>
<path d="M45.3276 8.95093L48.6817 16.6852C49.4061 16.0453 50.2092 15.4844 51.0831 15.0499L45.3355 8.95093H45.3276Z" fill="white"/>
<path d="M50.0359 10.7681L51.5712 14.8051C51.831 14.6945 52.083 14.5839 52.3507 14.497L50.0359 10.776V10.7681Z" fill="#BFD730"/>
<path d="M45.0676 14.1018L47.7446 17.6332C47.9336 17.4199 48.1304 17.2145 48.3272 17.017L45.0676 14.1018Z" fill="#BFD730"/>
<path d="M41.7295 19.158L45.4694 21.607C45.556 21.3384 45.6584 21.0698 45.7686 20.8012L41.7295 19.158Z" fill="#BFD730"/>
<path d="M39.6587 14.2598L45.9732 20.3271C46.3748 19.4581 46.8944 18.6523 47.5007 17.9176L39.6587 14.2598Z" fill="white"/>
<path d="M67.0347 8.95093L61.2871 15.0499C62.1532 15.4923 62.9563 16.0453 63.6806 16.6852L67.0347 8.95093Z" fill="white"/>
<path d="M62.3263 10.7679L60.0037 14.4889C60.2714 14.5837 60.5312 14.6864 60.7831 14.797L62.3263 10.76V10.7679Z" fill="#BFD730"/>
<path d="M67.3024 14.1018L64.0349 17.017C64.2396 17.2145 64.4365 17.4199 64.6254 17.6332L67.3024 14.1018Z" fill="#BFD730"/>
<path d="M66.5938 20.8012C66.704 21.0619 66.7985 21.3305 66.8929 21.607L70.6328 19.158L66.5938 20.8012Z" fill="#BFD730"/>
<path d="M72.6957 14.2598L64.8616 17.9176C65.4678 18.6523 65.9796 19.4581 66.389 20.3271L72.6957 14.2598Z" fill="white"/>
<path d="M46.6423 10.9419L49.1146 16.3219C49.5791 15.9506 50.0752 15.6109 50.5869 15.3107L46.6423 10.9419Z" fill="#B11116"/>
<path d="M41.7373 15.6819L46.2173 19.8216C46.4929 19.3081 46.8078 18.8104 47.1543 18.3522L41.7373 15.6819Z" fill="#B11116"/>
<path d="M65.7276 10.9419L61.7751 15.3107C62.2948 15.6109 62.783 15.9585 63.2475 16.3219L65.7276 10.9419Z" fill="#B11116"/>
<path d="M70.625 15.6819L65.2002 18.3522C65.5466 18.8104 65.8616 19.3081 66.1293 19.8216L70.6171 15.6819H70.625Z" fill="#B11116"/>
<path d="M73.231 23.9535L67.1685 23.5032L67.1448 23.3689C66.2866 17.9414 61.6728 13.9992 56.1771 13.9992C50.6814 13.9992 46.2959 17.7834 45.2802 22.9976L45.2566 23.124L39.1468 23.7876L39.1074 23.44L44.9653 22.8001C46.0597 17.4911 50.7523 13.6516 56.1771 13.6516C61.6019 13.6516 66.515 17.6491 67.4598 23.1793L73.2468 23.6138L73.2232 23.9614L73.231 23.9535Z" fill="white"/>
<path d="M55.6732 42.4005C55.6732 42.4005 53.4371 34.05 45.0204 31.9801L44.2173 28.7805C44.2173 28.7805 54.563 30.3685 55.6732 42.4005Z" fill="#F287B7"/>
<path d="M55.9567 41.1521C55.9567 41.1521 55.4764 33.0228 48.4612 29.3018V26.197C48.4612 26.197 56.7756 30.4157 55.9567 41.1521Z" fill="#BFD730"/>
<path d="M55.3426 42.8981C51.7366 32.3987 42.2491 32.4303 40.7295 32.5014C41.2098 33.4731 41.7688 34.3896 42.4144 35.2428C50.7209 35.5746 55.3505 42.8981 55.3505 42.8981H55.3426Z" fill="#00C0F3"/>
<path d="M57.0195 42.8982C57.0195 42.8982 61.6491 35.5668 69.9556 35.2429C70.6013 34.3897 71.1682 33.4733 71.6406 32.5016C70.1367 32.4305 60.6256 32.391 57.0195 42.8982Z" fill="#00C0F3"/>
<path d="M56.6812 42.4005C56.6812 42.4005 58.9093 34.05 67.334 31.9801L68.137 28.7805C68.137 28.7805 57.7913 30.3685 56.6812 42.4005Z" fill="#F287B7"/>
<path d="M56.4056 41.1521C56.4056 41.1521 56.8859 33.0228 63.9011 29.3018V26.197C63.9011 26.197 55.5946 30.4157 56.4056 41.1521Z" fill="#BFD730"/>
<path d="M73.4909 24.1351H59.547C58.3108 24.1351 57.2952 23.1159 57.2952 21.8756V2.11719C58.177 8.35835 59.4682 14.4731 59.4682 14.4731C60.1375 18.123 62.9719 21.0145 66.5859 21.765C66.5859 21.765 72.6091 23.6058 78.9944 24.1351H73.4909Z" fill="white"/>
<path d="M38.8634 24.1351H52.8073C54.0434 24.1351 55.0591 23.1159 55.0591 21.8756V2.11719C54.1851 8.35835 52.8939 14.4731 52.8939 14.4731C52.2168 18.123 49.3902 21.0145 45.7763 21.765C45.7763 21.765 39.7531 23.6058 33.3677 24.1351H38.8712" fill="white"/>
<path d="M4.2044 54.9933C4.2044 54.7405 4.11779 54.543 3.95245 54.4008C3.78711 54.2665 3.48004 54.1164 3.047 53.9663C2.1573 53.674 1.5038 53.3659 1.07076 53.042C0.637721 52.7181 0.425137 52.244 0.425137 51.6278C0.425137 51.0116 0.677088 50.5376 1.17312 50.1663C1.67702 49.795 2.3069 49.6133 3.08637 49.6133C3.90521 49.6133 4.55871 49.8029 5.05474 50.19C5.55076 50.5771 5.79484 51.1143 5.77909 51.8095V51.8411H4.15716C4.15716 51.5014 4.06268 51.2565 3.88159 51.1064C3.7005 50.9563 3.42493 50.8773 3.05487 50.8773C2.75568 50.8773 2.51948 50.9484 2.34626 51.0985C2.17305 51.2486 2.08644 51.4303 2.08644 51.6436C2.08644 51.8569 2.17305 52.0228 2.35414 52.1493C2.53523 52.2757 2.86591 52.4337 3.35407 52.6233C4.18078 52.8682 4.81066 53.1684 5.23583 53.5239C5.66099 53.8794 5.87358 54.3692 5.87358 54.9854C5.87358 55.6016 5.6295 56.1073 5.13347 56.4628C4.64532 56.8183 3.99182 57 3.18085 57C2.36988 57 1.68489 56.8104 1.12588 56.4233C0.566859 56.044 0.291288 55.4357 0.307035 54.6141V54.5825H1.93684C1.93684 55.0012 2.0392 55.2935 2.24391 55.4752C2.44862 55.6569 2.76356 55.7359 3.18085 55.7359C3.52728 55.7359 3.78711 55.6648 3.96032 55.5305C4.13354 55.3962 4.21227 55.2145 4.21227 54.9854L4.2044 54.9933Z" fill="#003478"/>
<path d="M12.259 54.4719V54.5035C12.2827 55.3251 12.0543 55.9413 11.5819 56.3601C11.1095 56.7788 10.4403 56.9921 9.57419 56.9921C8.70811 56.9921 7.98375 56.7235 7.44836 56.1784C6.91296 55.6332 6.64526 54.9301 6.64526 54.0532V52.5522C6.64526 51.6752 6.90509 50.9721 7.41686 50.427C7.92864 49.8819 8.61363 49.6133 9.46397 49.6133C10.3694 49.6133 11.0702 49.8266 11.5662 50.2453C12.0622 50.6719 12.3063 51.2881 12.2905 52.0939L12.2748 52.1256H10.6607C10.6607 51.6831 10.5663 51.3671 10.3852 51.1775C10.1962 50.9879 9.88913 50.8931 9.46397 50.8931C9.09391 50.8931 8.80259 51.0432 8.60576 51.3434C8.40892 51.6436 8.30657 52.0465 8.30657 52.5443V54.0532C8.30657 54.5588 8.41679 54.9538 8.63725 55.2619C8.85771 55.5621 9.17265 55.7122 9.58207 55.7122C9.95999 55.7122 10.2356 55.6174 10.4009 55.4278C10.5663 55.2382 10.6529 54.9222 10.6529 54.4719H12.2669H12.259Z" fill="#003478"/>
<path d="M19.1482 56.8895H17.4948V53.998H14.8493V56.8895H13.188V49.7161H14.8493V52.726H17.4948V49.7161H19.1482V56.8895Z" fill="#003478"/>
<path d="M26.2345 53.9504C26.2345 54.8352 25.9589 55.562 25.3999 56.1388C24.8409 56.7155 24.1087 56.9999 23.2111 56.9999C22.3135 56.9999 21.5655 56.7155 21.0065 56.1388C20.4396 55.562 20.1641 54.8352 20.1641 53.9504V52.6627C20.1641 51.7858 20.4475 51.051 21.0065 50.4822C21.5655 49.9055 22.2978 49.6211 23.2032 49.6211C24.1087 49.6211 24.833 49.9055 25.392 50.4822C25.9511 51.0589 26.2345 51.7858 26.2345 52.6627V53.9504ZM24.5811 52.6469C24.5811 52.1334 24.463 51.7146 24.2189 51.3828C23.9827 51.051 23.6363 50.893 23.2032 50.893C22.7702 50.893 22.408 51.0589 22.1718 51.3828C21.9356 51.7067 21.8175 52.1334 21.8175 52.6469V53.9504C21.8175 54.4718 21.9356 54.8905 22.1797 55.2223C22.4237 55.5541 22.7623 55.7121 23.2111 55.7121C23.6599 55.7121 23.9827 55.5462 24.2268 55.2223C24.463 54.8905 24.5811 54.4718 24.5811 53.9504V52.6469Z" fill="#003478"/>
<path d="M33.1867 53.9504C33.1867 54.8352 32.9111 55.562 32.3521 56.1388C31.7931 56.7155 31.0687 56.9999 30.1632 56.9999C29.2578 56.9999 28.5256 56.7155 27.9587 56.1388C27.3918 55.562 27.1162 54.8352 27.1162 53.9504V52.6627C27.1162 51.7858 27.3997 51.051 27.9587 50.4822C28.5177 49.9055 29.2499 49.6211 30.1554 49.6211C31.0608 49.6211 31.7852 49.9055 32.3442 50.4822C32.9032 51.0589 33.1867 51.7858 33.1867 52.6627V53.9504ZM31.5332 52.6469C31.5332 52.1334 31.4151 51.7146 31.171 51.3828C30.927 51.051 30.5884 50.893 30.1554 50.893C29.7223 50.893 29.368 51.0589 29.1239 51.3828C28.8877 51.7067 28.7696 52.1334 28.7696 52.6469V53.9504C28.7696 54.4718 28.8877 54.8905 29.1318 55.2223C29.3759 55.5541 29.7145 55.7121 30.1632 55.7121C30.612 55.7121 30.9348 55.5462 31.1789 55.2223C31.423 54.8984 31.5411 54.4718 31.5411 53.9504V52.6469H31.5332Z" fill="#003478"/>
<path d="M35.8559 55.6096H38.9265V56.8895H34.1946V49.7161H35.8559V55.6096Z" fill="#003478"/>
<path d="M48.2643 53.9504C48.2643 54.8352 47.9887 55.562 47.4297 56.1388C46.8707 56.7155 46.1385 56.9999 45.2409 56.9999C44.3433 56.9999 43.5953 56.7155 43.0363 56.1388C42.4694 55.562 42.1938 54.8352 42.1938 53.9504V52.6627C42.1938 51.7858 42.4773 51.051 43.0363 50.4822C43.5953 49.9055 44.3276 49.6211 45.233 49.6211C46.1385 49.6211 46.8628 49.9055 47.4218 50.4822C47.9808 51.0589 48.2643 51.7858 48.2643 52.6627V53.9504ZM46.6109 52.6469C46.6109 52.1334 46.4928 51.7146 46.2487 51.3828C46.0125 51.051 45.666 50.893 45.233 50.893C44.8 50.893 44.4378 51.0589 44.2016 51.3828C43.9654 51.7067 43.8473 52.1334 43.8473 52.6469V53.9504C43.8473 54.4718 43.9654 54.8905 44.2095 55.2223C44.4535 55.5541 44.7921 55.7121 45.2409 55.7121C45.6897 55.7121 46.0125 55.5462 46.2566 55.2223C46.4928 54.8905 46.6109 54.4718 46.6109 53.9504V52.6469Z" fill="#003478"/>
<path d="M53.5553 54.0058H50.9413V56.8973H49.28V49.7239H54.0592V51.0037H50.9413V52.726H53.5553V54.0058Z" fill="#003478"/>
<path d="M62.3656 50.9959H60.476V56.8895H58.8147V50.9959H56.9565V49.7161H62.3656V50.9959Z" fill="#003478"/>
<path d="M69.0032 56.8895H67.3498V53.998H64.7043V56.8895H63.043V49.7161H64.7043V52.726H67.3498V49.7161H69.0032V56.8895Z" fill="#003478"/>
<path d="M74.3177 53.8242H71.7982V55.6096H74.8216V56.8895H70.1448V49.7161H74.8295V50.9959H71.8061V52.5364H74.3256V53.8163L74.3177 53.8242Z" fill="#003478"/>
<path d="M84.2146 56.8895H82.5612L79.9472 52.3784H79.9157V56.8895H78.2544V49.7161H79.9157L82.5297 54.2271H82.5612V49.7161H84.2146V56.8895Z" fill="#003478"/>
<path d="M89.1906 55.4989H87.0648L86.6554 56.8973H84.9075L87.238 49.7239H88.1277H89.0174L91.3558 56.8973H89.6079L89.1906 55.4989ZM87.4427 54.2191H88.8048L88.1356 51.9912H88.1041L87.4427 54.2191Z" fill="#003478"/>
<path d="M96.4027 50.9959H94.5131V56.8895H92.8518V50.9959H90.9937V49.7161H96.4027V50.9959Z" fill="#003478"/>
<path d="M98.8356 56.8895H97.1821V49.7161H98.8356V56.8895Z" fill="#003478"/>
<path d="M106.016 53.9504C106.016 54.8352 105.741 55.562 105.182 56.1388C104.623 56.7155 103.898 56.9999 102.993 56.9999C102.087 56.9999 101.347 56.7155 100.788 56.1388C100.221 55.562 99.9458 54.8352 99.9458 53.9504V52.6627C99.9458 51.7858 100.229 51.051 100.788 50.4822C101.347 49.9055 102.08 49.6211 102.985 49.6211C103.89 49.6211 104.615 49.9055 105.174 50.4822C105.741 51.0589 106.016 51.7858 106.016 52.6627V53.9504ZM104.363 52.6469C104.363 52.1334 104.245 51.7146 104.001 51.3828C103.757 51.051 103.418 50.893 102.985 50.893C102.552 50.893 102.198 51.0589 101.954 51.3828C101.709 51.7067 101.599 52.1334 101.599 52.6469V53.9504C101.599 54.4718 101.717 54.8905 101.961 55.2223C102.205 55.5541 102.544 55.7121 102.993 55.7121C103.442 55.7121 103.764 55.5462 104.009 55.2223C104.245 54.8905 104.363 54.4718 104.363 53.9504V52.6469Z" fill="#003478"/>
<path d="M112.992 56.8895H111.339L108.725 52.3784H108.693V56.8895H107.032V49.7161H108.693L111.307 54.2271H111.339V49.7161H112.992V56.8895Z" fill="#003478"/>
</g>
<defs>
<clipPath id="clip0_4003_810">
<rect width="113" height="57" fill="white"/>
</clipPath>
</defs>
</svg>
