<svg width="48" height="48" viewBox="0 0 48 48" fill="none" xmlns="http://www.w3.org/2000/svg">
<path d="M33.1419 43.028L30.825 40.825C30.1189 40.148 28.9634 40.148 28.2514 40.825C27.5395 41.502 27.5336 42.6007 28.2514 43.2777H28.2456L30.5624 45.4807C30.9067 45.8081 31.3678 45.9912 31.8522 45.9912C32.5875 45.9746 33.2411 45.5528 33.5212 44.9091C33.8013 44.271 33.6496 43.5274 33.1419 43.028ZM19.7252 40.8527C19.0249 40.1813 17.8869 40.1702 17.175 40.825L14.8581 43.028C14.3504 43.5274 14.1987 44.271 14.4788 44.9091C14.7589 45.5528 15.4125 45.9746 16.1478 45.9912C17.2683 46.1133 18.739 44.1045 19.7486 43.2832C20.4372 42.6007 20.4255 41.5186 19.7252 40.8527ZM24.0029 41.4187C22.9933 41.4187 22.1763 42.1956 22.1763 43.1556V46.2687C22.1763 46.7292 22.3689 47.1676 22.7074 47.495C23.0517 47.8169 23.5185 48 24.0029 48C24.4873 48 24.9483 47.8169 25.2926 47.495C25.6311 47.1676 25.8237 46.7292 25.8237 46.2687V43.1556C25.8237 42.1956 25.0067 41.4187 24.0029 41.4187ZM19.7486 4.71676L17.4376 2.51931C16.7256 1.84231 15.5701 1.84231 14.8581 2.51931C14.1461 3.1963 14.1461 4.29503 14.8581 4.97202L17.175 7.17503C17.5134 7.49688 17.9686 7.68 18.4588 7.68H18.4647C19.1942 7.6689 19.8478 7.24717 20.1279 6.60347C20.408 5.95977 20.2621 5.22173 19.7486 4.71676ZM33.1185 2.5415C32.4124 1.87561 31.2802 1.86451 30.5624 2.51931L28.2514 4.71676C27.7379 5.22173 27.592 5.95977 27.8721 6.60347C28.1522 7.24717 28.8058 7.6689 29.5353 7.68C30.6558 7.80763 32.1264 5.79329 33.1419 4.97202C33.8305 4.28948 33.8188 3.2074 33.1185 2.5415ZM23.9971 0C22.9933 0 22.1763 0.776879 22.1763 1.73133V4.84439C22.1763 5.30497 22.3689 5.74335 22.7074 6.07075C23.0517 6.39815 23.5185 6.57572 23.9971 6.57572C24.4756 6.57572 24.9483 6.39815 25.2926 6.07075C25.6311 5.74335 25.8237 5.30497 25.8237 4.84439V1.73133C25.8237 0.776879 25.0067 0 23.9971 0ZM0 24.0333C8.99307 44.0435 39.0828 44.1156 48 24.0333C39.2637 3.8622 8.80049 3.93989 0 24.0333ZM23.5536 34.0606C17.6652 34.0606 12.8856 29.5214 12.8856 23.9223C12.8856 18.3232 17.6652 13.7785 23.5536 13.7785C29.4419 13.7785 34.2157 18.3232 34.2157 23.9223C34.2157 29.5214 29.4419 34.0606 23.5536 34.0606Z" fill="#FDA31B"/>
<path d="M23.5536 30.5147C27.2891 30.5147 30.3173 27.6352 30.3173 24.0832C30.3173 20.5313 27.2891 17.6518 23.5536 17.6518C19.818 17.6518 16.7898 20.5313 16.7898 24.0832C16.7898 27.6352 19.818 30.5147 23.5536 30.5147Z" fill="#FDA31B"/>
</svg>
