<svg width="28" height="28" viewBox="0 0 28 28" fill="none" xmlns="http://www.w3.org/2000/svg">
<path d="M19.9986 18.6431C19.1412 17.8026 18.0644 17.8026 17.2169 18.6431C16.5688 19.2859 15.9107 19.9287 15.2726 20.5715C15.0932 20.7495 14.9536 20.7891 14.7342 20.6704C14.3155 20.4429 13.8668 20.255 13.458 20.0078C11.5736 18.831 9.98831 17.318 8.58248 15.6072C7.88455 14.7567 7.26638 13.8568 6.83765 12.8284C6.74792 12.6207 6.76786 12.4823 6.93736 12.3141C7.58543 11.6911 8.22354 11.0483 8.86165 10.4056C9.74902 9.51554 9.74902 8.47719 8.86165 7.57729C8.35316 7.06306 7.84467 6.56861 7.33617 6.05437C6.80774 5.53026 6.28928 5.00614 5.76084 4.49191C4.90339 3.66123 3.82658 3.66123 2.97909 4.49191C2.32104 5.13469 1.69291 5.78737 1.02489 6.42027C0.39675 7.0235 0.0776965 7.73551 0.0178739 8.56619C-0.0818304 9.92099 0.247194 11.1967 0.715804 12.4328C1.68294 15.004 3.14859 17.2883 4.92333 19.3848C7.3262 22.223 10.1977 24.4579 13.5478 26.0797C15.0633 26.8115 16.6186 27.3653 18.3236 27.4543C19.4901 27.5235 20.5171 27.2268 21.3247 26.317C21.883 25.694 22.5112 25.1303 23.0994 24.5469C23.9768 23.6668 23.9768 22.5987 23.1094 21.7384C22.0725 20.7 21.0256 19.6716 19.9787 18.6431H19.9986Z" fill="#FDA31B"/>
<path d="M17.805 9.68363C18.9616 10.8703 19.6994 12.3537 19.9587 13.9656C20.0384 14.4996 20.507 14.8853 21.0454 14.8853C21.1053 14.8853 21.1551 14.8853 21.2149 14.8754C21.8132 14.7864 22.2219 14.2227 22.1322 13.6294C21.8132 11.5724 20.866 9.68363 19.3903 8.17061C17.8449 6.58836 15.8608 5.5599 13.6673 5.22367C13.0591 5.13467 12.5107 5.54012 12.411 6.13347C12.3213 6.72681 12.7301 7.2806 13.3283 7.37949C15.0432 7.64649 16.5986 8.4475 17.815 9.69352L17.805 9.68363Z" fill="#FDA31B"/>
<path d="M23.1092 4.69966C20.6465 2.17795 17.5058 0.556146 14.0162 0.0122486C13.408 -0.0767528 12.8596 0.328698 12.7599 0.922041C12.6702 1.51538 13.079 2.06917 13.6772 2.16806C16.6883 2.63285 19.4002 4.0272 21.5239 6.21268C23.5379 8.28938 24.8441 10.8803 25.2927 13.7086C25.3725 14.2426 25.8411 14.6283 26.3795 14.6283C26.4393 14.6283 26.4892 14.6283 26.549 14.6184C27.1472 14.5294 27.556 13.9657 27.4663 13.3723C26.9478 10.0991 25.4423 7.0928 23.1092 4.69966Z" fill="#FDA31B"/>
</svg>
